<?xml version="1.0" encoding="UTF-8" standalone="no"?>
<svg
   xmlns:dc="http://purl.org/dc/elements/1.1/"
   xmlns:cc="http://creativecommons.org/ns#"
   xmlns:rdf="http://www.w3.org/1999/02/22-rdf-syntax-ns#"
   xmlns:svg="http://www.w3.org/2000/svg"
   xmlns="http://www.w3.org/2000/svg"
   xmlns:xlink="http://www.w3.org/1999/xlink"
   xmlns:sodipodi="http://sodipodi.sourceforge.net/DTD/sodipodi-0.dtd"
   xmlns:inkscape="http://www.inkscape.org/namespaces/inkscape"
   width="210mm"
   height="297mm"
   viewBox="0 0 210 297"
   version="1.1"
   id="svg8"
   inkscape:version="1.0.2 (e86c870879, 2021-01-15)"
   sodipodi:docname="favicon.svg"
   inkscape:export-filename="/home/david/Documents/rollgraph/public/64.png"
   inkscape:export-xdpi="7.124794"
   inkscape:export-ydpi="7.124794">
  <defs
     id="defs2">
    <inkscape:path-effect
       effect="fillet_chamfer"
       id="path-effect1096"
       is_visible="true"
       lpeversion="1"
       satellites_param="F,0,1,1,0,0.12577804,0,1 @ F,0,1,1,0,0.12577804,0,1 @ F,0,1,1,0,0.12577804,0,1 @ F,0,1,1,0,0.12577804,0,1 @ F,0,1,1,0,0.12577804,0,1 @ F,0,1,1,0,0.12577804,0,1 @ F,0,1,1,0,0.12577804,0,1 @ F,0,1,1,0,0.12577804,0,1"
       unit="px"
       method="auto"
       mode="F"
       radius="0"
       chamfer_steps="1"
       flexible="false"
       use_knot_distance="true"
       apply_no_radius="true"
       apply_with_radius="true"
       only_selected="false"
       hide_knots="false" />
    <linearGradient
       inkscape:collect="always"
       id="linearGradient1014">
      <stop
         style="stop-color:#88c0d0;stop-opacity:1"
         offset="0"
         id="stop1010" />
      <stop
         style="stop-color:#5e81ac;stop-opacity:1"
         offset="1"
         id="stop1012" />
    </linearGradient>
    <linearGradient
       inkscape:collect="always"
       id="linearGradient1006">
      <stop
         style="stop-color:#2e3440;stop-opacity:1;"
         offset="0"
         id="stop1002" />
      <stop
         style="stop-color:#4c566a;stop-opacity:1"
         offset="1"
         id="stop1004" />
    </linearGradient>
    <inkscape:path-effect
       effect="fillet_chamfer"
       id="path-effect976"
       is_visible="true"
       lpeversion="1"
       satellites_param="F,0,1,1,0,0.12577804,0,1 @ F,0,1,1,0,0.12577804,0,1 @ F,0,1,1,0,0.12577804,0,1 @ F,0,1,1,0,0.12577804,0,1 @ F,0,1,1,0,0.12577804,0,1 @ F,0,1,1,0,0.12577804,0,1 @ F,0,1,1,0,0.12577804,0,1 @ F,0,1,1,0,0.12577804,0,1"
       unit="px"
       method="auto"
       mode="F"
       radius="0"
       chamfer_steps="1"
       flexible="false"
       use_knot_distance="true"
       apply_no_radius="true"
       apply_with_radius="true"
       only_selected="false"
       hide_knots="false" />
    <inkscape:path-effect
       effect="perspective-envelope"
       up_left_point="2567.0227,-295.95298"
       up_right_point="2569.3437,-297.29725"
       down_left_point="2567.0227,-293.26479"
       down_right_point="2569.3437,-294.6091"
       id="path-effect972"
       is_visible="true"
       lpeversion="1"
       deform_type="perspective"
       horizontal_mirror="false"
       vertical_mirror="false"
       overflow_perspective="false" />
    <inkscape:path-effect
       effect="perspective-envelope"
       up_left_point="2564.6936,-297.29725"
       up_right_point="2567.0227,-295.95298"
       down_left_point="2564.6932,-294.60887"
       down_right_point="2567.0227,-293.26482"
       id="path-effect970"
       is_visible="true"
       lpeversion="1"
       deform_type="perspective"
       horizontal_mirror="false"
       vertical_mirror="false"
       overflow_perspective="false" />
    <inkscape:path-effect
       effect="perspective-envelope"
       up_left_point="2564.6936,-297.29725"
       up_right_point="2567.0227,-298.6411"
       down_left_point="2567.0227,-295.95298"
       down_right_point="2569.3437,-297.29725"
       id="path-effect968"
       is_visible="true"
       lpeversion="1"
       deform_type="perspective"
       horizontal_mirror="false"
       vertical_mirror="false"
       overflow_perspective="false" />
    <linearGradient
       inkscape:collect="always"
       xlink:href="#linearGradient1006"
       id="linearGradient1008"
       x1="2566.9785"
       y1="-292.82129"
       x2="2566.9785"
       y2="-298.20004"
       gradientUnits="userSpaceOnUse" />
    <linearGradient
       inkscape:collect="always"
       xlink:href="#linearGradient1014"
       id="linearGradient1016"
       x1="2564.8474"
       y1="-296.26181"
       x2="2566.4841"
       y2="-293.46857"
       gradientUnits="userSpaceOnUse" />
    <linearGradient
       inkscape:collect="always"
       xlink:href="#linearGradient1014"
       id="linearGradient1024"
       x1="2568.7532"
       y1="-294.3912"
       x2="2567.3877"
       y2="-295.3309"
       gradientUnits="userSpaceOnUse" />
    <linearGradient
       inkscape:collect="always"
       xlink:href="#linearGradient1014"
       id="linearGradient1034"
       gradientUnits="userSpaceOnUse"
       x1="2566.8799"
       y1="-295.72214"
       x2="2566.8804"
       y2="-297.98749" />
    <linearGradient
       inkscape:collect="always"
       xlink:href="#linearGradient1006"
       id="linearGradient1066"
       gradientUnits="userSpaceOnUse"
       x1="2566.9785"
       y1="-292.82129"
       x2="2566.9785"
       y2="-298.20004" />
  </defs>
  <sodipodi:namedview
     id="base"
     pagecolor="#ffffff"
     bordercolor="#666666"
     borderopacity="1.0"
     inkscape:pageopacity="0.0"
     inkscape:pageshadow="2"
     inkscape:zoom="0.25000001"
     inkscape:cx="8519.2902"
     inkscape:cy="-1113.9652"
     inkscape:document-units="mm"
     inkscape:current-layer="layer1"
     inkscape:document-rotation="0"
     showgrid="false"
     inkscape:snap-smooth-nodes="true"
     showborder="false"
     inkscape:snap-nodes="true"
     inkscape:object-paths="true"
     inkscape:window-width="1920"
     inkscape:window-height="1007"
     inkscape:window-x="1920"
     inkscape:window-y="0"
     inkscape:window-maximized="1" />
  <metadata
     id="metadata5">
    <rdf:RDF>
      <cc:Work
         rdf:about="">
        <dc:format>image/svg+xml</dc:format>
        <dc:type
           rdf:resource="http://purl.org/dc/dcmitype/StillImage" />
        <dc:title />
      </cc:Work>
    </rdf:RDF>
  </metadata>
  <g
     inkscape:label="Layer 1"
     inkscape:groupmode="layer"
     id="layer1">
    <g
       id="g1135"
       transform="matrix(43.319713,0,0,43.319713,-108630.81,12505.042)">
      <path
         id="path1068"
         style="opacity:0.25;fill:#2e3440;fill-opacity:1;stroke-width:1.08594"
         inkscape:transform-center-x="-0.00066091214"
         inkscape:transform-center-y="-0.00076098005"
         d="m 2566.2185,-293.20244 a 0.21766965,0.01340199 0 0 0 -0.1504,0.004 l -1.7694,0.10888 a 0.07258921,0.00446934 0 0 0 0.033,0.007 l 2.4169,0.0399 -2.4174,-0.0398 a 0.07264356,0.00447269 0 0 0 -0.089,0.005 l 0.6475,0.14875 a 0.21777549,0.01340851 0 0 0 0.154,0.009 l 2.4169,0.0398 a 0.21757097,0.01339592 0 0 0 0.2103,-0.003 l 1.7622,-0.10879 a 0.21821615,0.01343564 0 0 0 0.056,-0.013 l -0.647,-0.14874 a 0.21811768,0.01342958 0 0 0 -0.154,-0.009 l -2.4091,-0.0399 a 0.21766965,0.01340199 0 0 0 -0.06,-4.4e-4 z" />
      <g
         id="g1064"
         transform="rotate(-15,2566.8655,-295.51068)">
        <path
           id="path949"
           style="opacity:1;fill:url(#linearGradient1066);fill-opacity:1;stroke-width:4.37642"
           inkscape:transform-center-x="0.0006431104"
           inkscape:transform-center-y="6.368353e-05"
           d="m 2566.7608,-298.2002 -2.1668,1.24997 a 0.07258953,0.07258953 90.009733 0 0 0,0.12574 l 2.1668,1.25097 a 1.7531371e-5,1.7531371e-5 119.99202 0 1 0,3e-5 l -2.1674,-1.25049 a 0.07264135,0.07264135 149.99202 0 0 -0.1089,0.0629 v 2.50086 a 0.21778152,0.21778152 59.991749 0 0 0.1089,0.18864 l 2.1674,1.25046 a 0.21757105,0.21757105 179.95125 0 0 0.2177,-1.8e-4 l 2.1592,-1.25065 a 0.21821003,0.21821003 119.9595 0 0 0.1088,-0.18882 v -2.50085 a 0.21812582,0.21812582 60.030932 0 0 -0.1089,-0.18879 l -2.159,-1.24965 a 0.21766788,0.21766788 0.04066013 0 0 -0.2178,-1.6e-4 z"
           inkscape:original-d="m 2566.8697,-298.26305 -2.3846,1.37567 2.3846,1.37675 -2.3852,-1.37621 v 2.75242 l 2.3852,1.37618 2.3768,-1.37673 v -2.75241 z"
           inkscape:path-effect="#path-effect976" />
        <path
           style="opacity:1;fill:url(#linearGradient1034);fill-opacity:1;stroke-width:5.89214"
           d="m 2565.0847,-297.10163 c -0.2368,0.13664 -0.2362,0.35706 0,0.49473 l 1.3541,0.78154 c 0.2381,0.1374 0.618,0.13781 0.8547,7.1e-4 l 1.3546,-0.78451 c 0.2352,-0.13626 0.2343,-0.35586 0,-0.49318 l -1.3493,-0.78129 c -0.2378,-0.13766 -0.6177,-0.13878 -0.8543,-0.002 z"
           id="rect894" />
        <path
           style="opacity:1;fill:url(#linearGradient1016);fill-opacity:1;stroke-width:5.89214"
           d="m 2565.0267,-296.5072 c -0.2371,-0.13685 -0.4278,-0.0265 -0.4279,0.24851 l -2e-4,1.56298 c -10e-5,0.27513 0.1901,0.60531 0.4278,0.74243 l 1.3573,0.78313 c 0.2372,0.13684 0.4278,0.0264 0.4278,-0.24867 v -1.56285 c 0,-0.27503 -0.1902,-0.60516 -0.4277,-0.74227 z"
           id="rect924" />
        <path
           style="opacity:1;fill:url(#linearGradient1024);fill-opacity:1;stroke-width:5.89214"
           d="m 2567.3543,-295.72415 c -0.2363,0.13682 -0.4265,0.46742 -0.4265,0.74241 v 1.56293 c 0,0.27505 0.1895,0.38568 0.4265,0.24843 l 1.352,-0.78307 c 0.2362,-0.13682 0.4265,-0.46746 0.4265,-0.74245 v -1.5629 c 0,-0.27505 -0.1895,-0.38569 -0.4265,-0.2484 z"
           id="rect936" />
        <path
           style="opacity:1;fill:#a3be8c;fill-opacity:1;stroke-width:5.89214"
           d="m 2567.652,-296.98459 c 0.12,-0.0731 0.3209,-0.074 0.4431,-0.002 0.1188,0.0713 0.1146,0.18479 -0.01,0.25295 -0.1178,0.0718 -0.3141,0.0742 -0.4374,0.006 -0.1245,-0.0707 -0.1229,-0.18703 0,-0.25649 z"
           id="path988" />
        <path
           style="opacity:1;fill:#a3be8c;fill-opacity:1;stroke-width:5.89214"
           d="m 2566.635,-296.39642 c 0.1219,-0.0678 0.3155,-0.0662 0.4341,0.003 0.1152,0.069 0.1153,0.17835 4e-4,0.24752 -0.118,0.0718 -0.3146,0.0744 -0.438,0.006 -0.1247,-0.0707 -0.1231,-0.1871 0,-0.25669 z"
           id="path986" />
        <path
           style="opacity:1;fill:#a3be8c;fill-opacity:1;stroke-width:5.89214"
           d="m 2566.648,-296.97735 c 0.118,-0.0718 0.3146,-0.0742 0.438,-0.005 0.1245,0.0708 0.1229,0.18705 0,0.25656 -0.1219,0.0677 -0.3155,0.0662 -0.4341,-0.004 -0.1152,-0.0691 -0.1154,-0.17844 -4e-4,-0.24756 z"
           id="path984" />
        <path
           style="opacity:1;fill:#a3be8c;fill-opacity:1;stroke-width:5.89214"
           d="m 2566.661,-297.55819 c 0.118,-0.0717 0.3146,-0.074 0.438,-0.005 0.1245,0.0708 0.1229,0.18708 0,0.25652 -0.1202,0.0731 -0.3215,0.074 -0.444,0.002 -0.119,-0.0714 -0.1147,-0.18509 0.01,-0.25324 z"
           id="path982" />
        <path
           style="opacity:1;fill:#a3be8c;fill-opacity:1;stroke-width:5.89214"
           d="m 2565.6425,-296.9701 c 0.1198,-0.0665 0.3092,-0.0664 0.4288,2.7e-4 0.1208,0.0686 0.1236,0.18057 0.01,0.25108 -0.1204,0.0732 -0.322,0.0742 -0.4446,0.002 -0.1192,-0.0714 -0.1149,-0.18517 0.01,-0.25344 z"
           id="path980" />
        <path
           style="opacity:1;fill:#a3be8c;fill-opacity:1;stroke-width:5.89214"
           d="m 2565.1964,-294.80921 c 0.124,0.0679 0.2259,0.24213 0.2248,0.38431 0,0.13884 -0.1032,0.19185 -0.2248,0.1181 -0.1217,-0.0666 -0.2225,-0.23608 -0.2248,-0.37749 0,-0.14344 0.1009,-0.20006 0.2248,-0.12492 z"
           id="path996" />
        <path
           style="opacity:1;fill:#a3be8c;fill-opacity:1;stroke-width:5.89214"
           d="m 2565.7076,-295.08776 c 0.1216,0.0666 0.2225,0.23606 0.2247,0.37745 0,0.14342 -0.1008,0.20004 -0.2248,0.1249 -0.1201,-0.072 -0.2159,-0.24085 -0.2148,-0.37859 0,-0.13443 0.097,-0.18908 0.2149,-0.12376 z"
           id="path994" />
        <path
           style="opacity:1;fill:#a3be8c;fill-opacity:1;stroke-width:5.89214"
           d="m 2566.2186,-295.36634 c 0.1216,0.0666 0.2225,0.23605 0.2247,0.37746 0,0.14345 -0.1008,0.20005 -0.2248,0.12485 -0.1239,-0.0679 -0.2258,-0.24211 -0.2247,-0.38426 0,-0.13881 0.1031,-0.1918 0.2248,-0.11805 z"
           id="path992" />
        <path
           style="opacity:1;fill:#a3be8c;fill-opacity:1;stroke-width:5.89214"
           d="m 2568.029,-295.0899 c 0.1174,-0.0653 0.212,-0.0107 0.2141,0.12374 0,0.13772 -0.094,0.30654 -0.2141,0.37857 -0.1235,0.0751 -0.225,0.0185 -0.2239,-0.12488 0,-0.14138 0.1027,-0.31079 0.2239,-0.37743 z"
           id="path1000" />
      </g>
    </g>
  </g>
</svg>
